# xmcd CD database file
#
# Track frame offsets:
#	150
#	24910
#	41958
#	71043
#	97980
#	112153
#	126852
#	144582
#	156760
#	182739
#	199731
#
# Disc length: 2944 seconds
#
# Revision: 1
# Processed by: cddbd v1.5.2PL0 Copyright (c) Steve Scherf et al.
# Submitted via: CDex 1.70beta2
#
DISCID=9d0b7e0b
DTITLE=Jeff Martin 777 - The Ground Cries Out
DYEAR=2011
DGENRE=Blues
TTITLE0=The Ground Cries Out 
TTITLE1=Queen Of Spades
TTITLE2=She's Leaving
TTITLE3=The Cobra 
TTITLE4=1916
TTITLE5=The Meekong
TTITLE6=One Star In Sight 
TTITLE7=Blue Mountain Sun 
TTITLE8=Santeria 
TTITLE9=Riverland Rambler 
TTITLE10=The Pyre 
EXTD=YEAR: 2011
EXTT0=
EXTT1=
EXTT2=
EXTT3=
EXTT4=
EXTT5=
EXTT6=
EXTT7=
EXTT8=
EXTT9=
EXTT10=
PLAYORDER=
